C:\Users\r0593348\3dpredictsim\Results\Batchsim_tmt_linear\Pog_s1_tmt_aCst_d00_k2000_ig24_pas_GRF.mot
nRows=25
nColumns=19

name C:\Users\r0593348\3dpredictsim\Results\Batchsim_tmt_linear\Pog_s1_tmt_aCst_d00_k2000_ig24_pas_GRF.mot
datacolumns 19
datarows 25
range 0.0000000000 0.2650440430
endheader
time 	ground_force_vx	ground_force_vy	ground_force_vz	ground_force_px	ground_force_py	ground_force_pz	1_ground_force_vx	1_ground_force_vy	1_ground_force_vz	1_ground_force_px	1_ground_force_py	1_ground_force_pz	ground_torque_x	ground_torque_y	ground_torque_z	1_ground_torque_x	1_ground_torque_y	1_ground_torque_z
        0.0000000000	      -93.2293623303	       84.6385217390	       36.6369650232	        0.1748216048	        0.0000000000	        0.0384616485	       95.5451221884	      512.5782056936	       -3.8076347834	       -0.3131232960	        0.0000000000	       -0.0374113782	        0.0000000000	        0.0000000000	        0.0000000000	        0.0000000000	        0.0000000000	        0.0000000000	
        0.0110435018	      -83.5403158043	      180.1046091829	       74.3299118253	        0.1811199340	        0.0000000000	        0.0368684491	       79.1605769450	      433.4281705579	       -8.2252683480	       -0.3097923319	        0.0000000000	       -0.0365512988	        0.0000000000	        0.0000000000	        0.0000000000	        0.0000000000	        0.0000000000	        0.0000000000	
        0.0220870036	      -36.9862026221	      322.7265583235	       15.8015508585	        0.1846740081	        0.0000000000	        0.0349013700	       63.2600553264	      349.7389436494	       -6.8299468161	       -0.3048636919	        0.0000000000	       -0.0348716823	        0.0000000000	        0.0000000000	        0.0000000000	        0.0000000000	        0.0000000000	        0.0000000000	
        0.0331305054	      -38.7186638213	      455.2334905412	       -0.3049745257	        0.1879600400	        0.0000000000	        0.0352140730	       42.2341300003	      261.0880552017	       -4.4013633052	       -0.2970272075	        0.0000000000	       -0.0317496621	        0.0000000000	        0.0000000000	        0.0000000000	        0.0000000000	        0.0000000000	        0.0000000000	
        0.0441740072	      -71.8700661038	      610.5521236064	       -5.5929907677	        0.1955386021	        0.0000000000	        0.0375788263	       17.9516583138	      171.1487448798	       -8.5041017595	       -0.2829163537	        0.0000000000	       -0.0254746844	        0.0000000000	        0.0000000000	        0.0000000000	        0.0000000000	        0.0000000000	        0.0000000000	
        0.0552175089	      -96.3064109898	      734.3003169760	       -9.7079329880	        0.2018786172	        0.0000000000	        0.0394853576	        3.4097637224	      131.8023221238	      -12.7471594123	       -0.2760977794	        0.0000000000	       -0.0220236670	        0.0000000000	        0.0000000000	        0.0000000000	        0.0000000000	        0.0000000000	        0.0000000000	
        0.0662610107	     -104.3258560155	      793.7453990235	      -11.7253914853	        0.2063379009	        0.0000000000	        0.0407018327	        1.1524459623	      101.1606947522	      -13.3985642824	       -0.2755723275	        0.0000000000	       -0.0221134313	        0.0000000000	        0.0000000000	        0.0000000000	        0.0000000000	        0.0000000000	        0.0000000000	
        0.0773045125	     -101.7107632163	      804.5567835470	      -12.3453851036	        0.2096630268	        0.0000000000	        0.0414714169	       -2.9986784173	       65.1925590601	      -11.9855872536	       -0.2751147432	        0.0000000000	       -0.0221351291	        0.0000000000	        0.0000000000	        0.0000000000	        0.0000000000	        0.0000000000	        0.0000000000	
        0.0883480143	      -94.8639332576	      794.1762025199	      -12.5431364260	        0.2125827584	        0.0000000000	        0.0419395278	       -8.4211727560	       26.4593505215	       -5.7815230436	       -0.2754683896	        0.0000000000	       -0.0217741645	        0.0000000000	        0.0000000000	        0.0000000000	        0.0000000000	        0.0000000000	        0.0000000000	
        0.0993915161	      -85.7548272663	      780.0243325591	      -13.3537199827	        0.2157230836	        0.0000000000	        0.0421826936	        0.0948811802	       -0.0930602896	        0.0023918568	        0.0000000000	        0.0000000000	        0.0000000000	        0.0000000000	        0.0000000000	        0.0000000000	        0.0000000000	        0.0000000000	        0.0000000000	
        0.1104350179	      -74.4519903371	      757.7210101004	      -14.3012724550	        0.2190024043	        0.0000000000	        0.0423114877	        0.0002156082	       -0.0001731386	       -0.0000111228	        0.0000000000	        0.0000000000	        0.0000000000	        0.0000000000	        0.0000000000	        0.0000000000	        0.0000000000	        0.0000000000	        0.0000000000	
        0.1214785197	      -64.5731685038	      732.3246616814	      -14.7934996878	        0.2229510410	        0.0000000000	        0.0423503233	        0.0000902960	       -0.0000628556	       -0.0000063547	        0.0000000000	        0.0000000000	        0.0000000000	        0.0000000000	        0.0000000000	        0.0000000000	        0.0000000000	        0.0000000000	        0.0000000000	
        0.1325220215	      -56.0590141173	      707.5130505252	      -15.2853814047	        0.2274945742	        0.0000000000	        0.0422828492	        0.0009179073	       -0.0005724362	       -0.0000725111	        0.0000000000	        0.0000000000	        0.0000000000	        0.0000000000	        0.0000000000	        0.0000000000	        0.0000000000	        0.0000000000	        0.0000000000	
        0.1435655233	      -47.4078959276	      681.4220649653	      -15.8648074364	        0.2320730315	        0.0000000000	        0.0422334506	        0.0029025966	       -0.0016581258	       -0.0002439996	        0.0000000000	        0.0000000000	        0.0000000000	        0.0000000000	        0.0000000000	        0.0000000000	        0.0000000000	        0.0000000000	        0.0000000000	
        0.1546090251	      -39.3330610148	      656.0985289387	      -16.3923494796	        0.2366033924	        0.0000000000	        0.0422416889	       -0.0321334512	        0.0170695797	        0.0028154240	        0.0000000000	        0.0000000000	        0.0000000000	        0.0000000000	        0.0000000000	        0.0000000000	        0.0000000000	        0.0000000000	        0.0000000000	
        0.1656525268	      -32.3905438324	      633.7042941698	      -16.8196960873	        0.2410793306	        0.0000000000	        0.0422943696	       -0.0218757081	        0.0109273105	        0.0019757356	        0.0000000000	        0.0000000000	        0.0000000000	        0.0000000000	        0.0000000000	        0.0000000000	        0.0000000000	        0.0000000000	        0.0000000000	
        0.1766960286	      -26.3946389095	      615.0727268897	      -17.3221133909	        0.2455835026	        0.0000000000	        0.0423696850	       -0.0158313311	        0.0075040933	        0.0014588953	        0.0000000000	        0.0000000000	        0.0000000000	        0.0000000000	        0.0000000000	        0.0000000000	        0.0000000000	        0.0000000000	        0.0000000000	
        0.1877395304	      -21.3406029830	      600.8733839439	      -17.6183689993	        0.2503909532	        0.0000000000	        0.0424452157	       -0.0149477849	        0.0067749812	        0.0013921091	        0.0000000000	        0.0000000000	        0.0000000000	        0.0000000000	        0.0000000000	        0.0000000000	        0.0000000000	        0.0000000000	        0.0000000000	
        0.1987830322	      -17.7568874934	      591.2949591429	      -17.6706394047	        0.2555479080	        0.0000000000	        0.0424937913	       -0.0188535014	        0.0082191841	        0.0017601500	        0.0000000000	        0.0000000000	        0.0000000000	        0.0000000000	        0.0000000000	        0.0000000000	        0.0000000000	        0.0000000000	        0.0000000000	
        0.2098265340	      -15.0150048537	      585.4195377476	      -17.7063152314	        0.2609659335	        0.0000000000	        0.0424979621	       -0.0303724426	        0.0127969847	        0.0028192370	        0.0000000000	        0.0000000000	        0.0000000000	        0.0000000000	        0.0000000000	        0.0000000000	        0.0000000000	        0.0000000000	        0.0000000000	
        0.2208700358	      -13.6984266847	      582.6973944294	      -17.7769772027	        0.2666311109	        0.0000000000	        0.0424545035	       -0.0579766059	        0.0237112364	        0.0053285372	        0.0000000000	        0.0000000000	        0.0000000000	        0.0000000000	        0.0000000000	        0.0000000000	        0.0000000000	        0.0000000000	        0.0000000000	
        0.2319135376	      -13.0360608056	      582.0150200392	      -17.8124451550	        0.2723673556	        0.0000000000	        0.0423728650	       -0.1203448414	        0.0479696069	        0.0109200412	        0.0000000000	        0.0000000000	        0.0000000000	        0.0000000000	        0.0000000000	        0.0000000000	        0.0000000000	        0.0000000000	        0.0000000000	
        0.2429570394	      -12.0148118269	      582.1699089285	      -17.9177364391	        0.2781969495	        0.0000000000	        0.0422571225	       -0.2504613032	        0.0976716271	        0.0224010663	        0.0000000000	        0.0000000000	        0.0000000000	        0.0000000000	        0.0000000000	        0.0000000000	        0.0000000000	        0.0000000000	        0.0000000000	
        0.2540005412	      -10.8862037038	      581.9748462486	      -17.9037480291	        0.2840280980	        0.0000000000	        0.0421193410	       -0.4870942257	        0.1865298321	        0.0428694321	        0.0000000000	        0.0000000000	        0.0000000000	        0.0000000000	        0.0000000000	        0.0000000000	        0.0000000000	        0.0000000000	        0.0000000000	
        0.2650440430	       -9.4576172194	      580.8320784238	      -17.7500330505	        0.2897891610	        0.0000000000	        0.0419700224	       -0.8404838886	        0.3172057943	        0.0726198545	        0.0000000000	        0.0000000000	        0.0000000000	        0.0000000000	        0.0000000000	        0.0000000000	        0.0000000000	        0.0000000000	        0.0000000000	
